PathFileType	4	(X/Y/Z)	1H_nor_slow_left.trc
DataRate	CameraRate	NumFrames	NumMarkers	Units	OrigDataRate	OrigDataStartFrame	OrigNumFrames
250.00	250.00	19	18	mm	250.00	10241	20480
Frame#	Time	c7	r_should	l_should	clavicle	r_upa	r_elb_l	r_elb_m	r_low	r_wri_l	r_wri_m	r_met	l_upa	l_elb_l	l_elb_m	l_low	l_wri_l	l_wri_m	l_met
	X1	Y1	Z1	X2	Y2	Z2	X3	Y3	Z3	X4	Y4	Z4	X5	Y5	Z5	X6	Y6	Z6	X7	Y7	Z7	X8	Y8	Z8	X9	Y9	Z9	X10	Y10	Z10	X11	Y11	Z11	X12	Y12	Z12	X13	Y13	Z13	X14	Y14	Z14	X15	Y15	Z15	X16	Y16	Z16	X17	Y17	Z17	X18	Y18	Z18
10241	40.96000	1195.49683	1426.11279	174.64966	1224.58459	1356.37671	347.12595	1246.75171	1368.01770	11.74181	1311.92749	1290.55750	184.09622	1218.56738	1151.14001	419.91605	1209.10205	1068.39246	445.54526	nan	nan	nan	1249.98303	946.97614	435.05591	1296.69141	834.35626	411.06689	1225.73926	818.16992	436.43326	1313.60498	767.22705	449.43427	1295.73938	1178.86255	-77.33672	1323.92139	1110.06775	-93.53940	1248.22144	1068.48218	-45.28877	1379.05127	1090.15674	-5.37634	1399.80444	1116.74023	97.83907	1400.41821	1036.76526	106.19017	1469.30542	1102.77026	155.05092
10242	40.96400	1195.51990	1426.12170	174.68587	1224.57935	1356.34888	347.16324	1246.83936	1368.00391	11.78079	1311.95483	1290.52356	184.15720	1218.51245	1151.10779	419.95477	1209.02759	1068.37732	445.58466	nan	nan	nan	1249.91602	946.93719	435.13553	1296.55652	834.29449	411.12595	1225.57812	818.16943	436.51245	1313.43604	767.17151	449.51245	1295.75000	1178.79089	-77.24940	1323.89380	1109.92810	-93.45223	1248.16321	1068.45190	-45.22686	1379.06970	1089.79968	-5.29396	1399.87134	1116.28467	97.96075	1399.60986	1036.94604	105.56840	1469.39380	1102.12830	155.09462
10243	40.96800	1195.54382	1426.12842	174.73311	1224.43848	1356.45520	347.11621	1246.92395	1367.98853	11.82627	1311.98254	1290.48962	184.21835	1218.46313	1151.06714	419.99387	1208.95496	1068.36279	445.63080	nan	nan	nan	1249.84436	946.89832	435.20886	1296.41577	834.24316	411.18253	1225.41467	818.16339	436.59479	1313.26904	767.11353	449.58676	1295.76184	1178.71509	-77.15742	1323.86560	1109.77625	-93.35938	1248.10913	1068.41882	-45.15498	1378.09778	1089.66492	-4.68952	1399.92908	1115.81445	98.06708	1400.65906	1035.51855	106.47227	1469.48108	1101.48499	155.14911
10244	40.97200	1195.56592	1426.13379	174.78616	1224.12866	1356.74341	346.96954	1247.00476	1367.96899	11.86839	1312.00671	1290.45142	184.27483	1218.41650	1151.02625	420.03845	1208.86975	1068.34106	445.67767	nan	nan	nan	1249.77173	946.85681	435.27429	1296.28699	834.18079	411.23788	1225.24622	818.16162	436.66446	1313.10291	767.06183	449.65668	1295.77039	1178.64075	-77.06603	1323.83435	1109.61780	-93.25577	1248.04773	1068.37927	-45.07891	1376.87427	1089.60034	-3.93656	1399.98840	1115.34814	98.16123	1400.93372	1034.76685	106.72315	1469.57373	1100.85010	155.19910
10245	40.97600	1195.58716	1426.13928	174.83102	1224.04395	1356.80151	346.96918	1247.08533	1367.95215	11.91041	1312.02234	1290.40454	184.32832	1218.36597	1150.98242	420.07822	1208.78137	1068.31799	445.70932	nan	nan	nan	1249.70056	946.81543	435.33408	1296.15332	834.13232	411.29208	1225.08142	818.16241	436.72961	1312.94202	767.01306	449.72726	1295.77063	1178.56384	-76.97691	1323.79761	1109.45984	-93.14925	1247.98413	1068.34534	-44.99442	1377.53552	1089.10840	-4.20695	1400.06299	1114.88135	98.26360	1400.98181	1034.21362	106.78600	1469.66223	1100.18750	155.24454
10246	40.98000	1195.60608	1426.14355	174.87425	1224.01624	1356.80115	347.00537	1247.17065	1367.92798	11.95292	1312.03540	1290.36023	184.39125	1218.30884	1150.94006	420.11328	1208.69800	1068.29846	445.75580	1162.46741	1036.69727	379.02927	1249.62854	946.77832	435.39639	1296.02246	834.07526	411.33588	1224.92419	818.16205	436.79248	1312.78577	766.96332	449.79733	1295.76282	1178.48376	-76.89063	1323.74658	1109.29907	-93.04073	1247.91907	1068.30408	-44.90487	1375.70544	1089.19519	-3.18069	1400.13672	1114.40735	98.36150	1400.30151	1034.29199	106.28314	1469.75513	1099.51221	155.29094
10247	40.98400	1195.62793	1426.15027	174.91945	1224.00659	1356.78528	347.04443	1247.25415	1367.89746	11.99283	1311.60193	1291.08984	184.26028	1218.24902	1150.89392	420.14877	1208.60889	1068.28271	445.79816	1162.55310	1036.68250	379.01953	1249.54675	946.74774	435.46576	1295.89453	834.02386	411.38885	1224.75964	818.16565	436.85223	1312.62830	766.91687	449.86295	1295.74878	1178.39880	-76.80189	1323.68616	1109.13635	-92.92255	1247.84839	1068.27356	-44.81145	1375.22900	1088.94751	-2.85191	1400.20728	1113.91284	98.47562	1399.46790	1034.48474	105.66171	1469.84839	1098.85791	155.34131
10248	40.98800	1195.64966	1426.15601	174.95888	1223.99731	1356.76672	347.08563	1247.34033	1367.86584	12.03545	1310.60986	1292.80042	183.89162	1218.18896	1150.86230	420.18549	1208.51636	1068.25842	445.82074	1162.65906	1036.66125	378.98837	1249.47363	946.72113	435.52393	1295.76611	833.97272	411.43683	1224.59448	818.16388	436.89786	1312.47314	766.87787	449.92807	1295.72803	1178.31030	-76.71156	1323.61890	1108.96851	-92.78825	1247.77124	1068.23706	-44.71941	1375.09521	1088.60876	-2.68957	1400.27026	1113.42847	98.60111	1400.56934	1032.97461	106.54987	1469.94189	1098.19116	155.38809
10249	40.99200	1195.66858	1426.16309	174.99561	1223.98352	1356.75574	347.12732	1247.42676	1367.83594	12.07341	1310.36914	1293.23071	183.83929	1218.12646	1150.83325	420.21878	1208.43408	1068.24963	445.86429	1162.72302	1036.64880	378.97537	1249.40234	946.69971	435.58481	1295.63831	833.92731	411.48920	1224.42651	818.15930	436.93613	1312.31274	766.84509	449.98969	1295.70081	1178.22266	-76.61809	1323.53613	1108.79285	-92.66122	1247.68774	1068.20215	-44.62380	1376.51562	1087.59485	-3.10544	1400.32739	1112.94653	98.72945	1400.86340	1032.17725	106.78002	1470.04370	1097.51648	155.43378
10250	40.99600	1195.68701	1426.16956	175.03366	1223.96851	1356.73877	347.16760	1247.51782	1367.80615	12.11145	1310.31409	1293.33740	183.87001	1218.05847	1150.80713	420.25183	1207.72546	1068.74255	445.77499	1162.74780	1036.63733	378.97412	1249.32715	946.68042	435.64267	1295.50000	833.88000	411.53207	1224.26416	818.15729	436.97510	1312.14648	766.81610	450.05457	1295.66882	1178.13611	-76.52706	1323.44836	1108.62805	-92.54903	1247.58887	1068.16321	-44.54354	1379.77222	1085.74524	-4.18475	1400.37610	1112.45630	98.86171	1400.22778	1032.19885	106.34066	1470.14001	1096.86182	155.48175
10251	41.00000	1195.70276	1426.17554	175.06760	1223.94177	1356.73291	347.21121	1247.61584	1367.77209	12.15671	1310.30798	1293.36572	183.93358	1217.98779	1150.78821	420.29291	1206.23230	1069.84399	445.50314	1162.74072	1036.63428	378.98361	1249.24805	946.67010	435.70572	1295.35986	833.83978	411.57443	1224.10913	818.14642	437.00702	1311.97583	766.79230	450.11215	1295.63672	1178.04004	-76.43244	1323.36133	1108.46130	-92.42638	1247.48853	1068.12488	-44.45112	1380.52148	1085.04932	-4.40286	1400.43213	1111.95398	99.00156	1399.34351	1032.44446	105.72591	1470.22827	1096.20667	155.52229
10252	41.00400	1195.71753	1426.17773	175.09773	1223.91101	1356.72583	347.25095	1247.71167	1367.74170	12.19315	1310.31372	1293.36743	184.01106	1217.91150	1150.76929	420.33316	1206.39429	1069.61780	445.60110	1162.69702	1036.63708	378.99579	1249.15869	946.66492	435.76450	1295.21826	833.81262	411.62701	1223.95105	818.14642	437.03894	1311.80859	766.77570	450.16861	1295.60254	1177.93823	-76.33910	1323.27124	1108.30200	-92.30197	1247.38696	1068.08423	-44.34460	1380.64844	1084.65869	-4.40191	1400.50195	1111.45544	99.12207	1400.44104	1030.95862	106.63537	1470.31934	1095.54431	155.56610
10253	41.00800	1195.73254	1426.17700	175.12973	1223.87891	1356.72375	347.28546	1247.80957	1367.70874	12.22695	1310.31836	1293.36060	184.08372	1217.82727	1150.75989	420.36743	1206.96729	1069.06458	445.79559	1162.61755	1036.65259	379.01028	1249.07544	946.67017	435.82568	1295.06824	833.78577	411.68741	1223.79089	818.14832	437.07465	1311.64111	766.76099	450.22571	1295.57129	1177.83276	-76.24140	1323.18640	1108.13892	-92.17087	1247.28333	1068.03845	-44.24398	1380.63306	1084.33459	-4.34366	1400.57568	1110.95850	99.22832	1400.73657	1030.14563	106.88130	1470.41003	1094.88147	155.60945
10254	41.01200	1195.74902	1426.17920	175.16499	1223.83997	1356.72766	347.32782	1247.90405	1367.68457	12.25870	1310.32373	1293.35071	184.15939	1217.73401	1150.75806	420.40134	1205.79553	1069.92200	445.58975	1162.52014	1036.67090	379.01517	1248.98071	946.66827	435.88202	1294.91895	833.77924	411.74951	1223.64539	818.14435	437.11121	1311.47998	766.74725	450.28580	1295.54346	1177.72522	-76.14439	1323.10266	1107.97412	-92.04188	1247.17981	1067.98340	-44.14537	1380.60413	1083.99963	-4.25492	1400.64075	1110.45764	99.34201	1400.78540	1029.51074	106.91064	1470.49451	1094.21802	155.64743
10255	41.01600	1195.76831	1426.18201	175.19772	1223.79919	1356.73413	347.37427	1248.00061	1367.65808	12.29437	1310.33130	1293.34290	184.24588	1217.63440	1150.75916	420.43243	1206.03528	1069.64294	445.69702	1162.44373	1036.69971	379.00330	1248.89172	946.67792	435.93280	1294.76074	833.76917	411.80829	1223.49792	818.15540	437.15137	1311.31506	766.73346	450.34042	1295.51355	1177.61682	-76.05104	1323.02893	1107.81152	-91.91600	1247.08789	1067.92383	-44.03970	1380.59424	1083.60266	-4.13651	1400.70422	1109.93433	99.47075	1400.14368	1029.58521	106.40446	1470.57971	1093.55994	155.69569
10256	41.02000	1195.78699	1426.18518	175.22684	1223.75513	1356.73987	347.40799	1248.10046	1367.63196	12.32737	1310.33765	1293.33325	184.32835	1217.53992	1150.76562	420.46844	1206.62744	1069.08167	445.89496	1162.35681	1036.72937	379.00482	1248.80908	946.69800	435.98685	1294.60864	833.77563	411.87894	1223.34619	818.16388	437.19476	1311.14502	766.72302	450.39432	1295.48633	1177.51257	-75.96016	1322.95996	1107.63806	-91.79233	1246.99890	1067.85095	-43.93863	1380.59241	1083.20544	-4.01133	1400.76111	1109.40613	99.60503	1399.31934	1029.86768	105.77100	1470.67163	1092.90125	155.73492
10257	41.02400	1195.80676	1426.19080	175.25307	1223.71350	1356.75244	347.45276	1248.19324	1367.61035	12.35934	1310.34167	1293.32361	184.39948	1217.44031	1150.78210	420.51221	1205.46216	1069.92651	445.69714	1162.21594	1036.76111	379.01248	1248.72278	946.72247	436.02637	1294.46997	833.78931	411.94046	1223.19885	818.16833	437.22723	1310.98035	766.71729	450.44522	1295.46436	1177.40564	-75.85989	1322.89355	1107.45850	-91.67401	1246.91467	1067.77283	-43.83116	1380.56201	1082.86157	-3.91754	1400.82007	1108.87231	99.74815	1400.40833	1028.38953	106.65296	1470.76392	1092.24622	155.77179
10258	41.02800	1195.82703	1426.19910	175.27701	1223.67456	1356.76099	347.50192	1248.28589	1367.58630	12.39770	1310.35132	1293.31750	184.46765	1217.34436	1150.80200	420.54941	1205.69995	1069.65344	445.81433	1162.02722	1036.78467	379.01929	1248.63550	946.74908	436.07504	1294.32092	833.79395	412.00098	1223.05396	818.17487	437.26324	1310.82300	766.71741	450.49136	1295.44592	1177.29480	-75.75616	1322.83606	1107.27209	-91.53481	1246.84265	1067.69421	-43.71518	1379.08203	1083.18542	-3.31217	1400.88037	1108.32849	99.89423	1400.66089	1027.56970	106.87611	1470.84729	1091.59314	155.80209
10259	41.03200	1195.84631	1426.20203	175.30074	1223.62634	1356.77124	347.54565	1248.37244	1367.56750	12.43458	1310.35901	1293.31323	184.52119	1217.24744	1150.82581	420.58221	1206.90588	1068.60876	446.14142	1161.86243	1036.80530	379.03152	1248.55676	946.77515	436.13025	1294.17297	833.80701	412.07544	1222.91663	818.17267	437.28436	1310.66748	766.71259	450.53162	1295.43359	1177.18555	-75.64256	1322.78235	1107.08948	-91.39111	1246.76941	1067.61597	-43.59659	1375.82251	1084.34863	-2.07176	1400.95117	1107.79761	100.01933	1400.78955	1026.90991	106.97169	1470.94043	1090.95007	155.83261
